# xmcd
# 
# Track frame offsets:
#     150
#     16165
#     24355
#     33340
#     51827
#     58430
#     76697
#     97225
#     108667
#     121867
#     130232
#     139112
#     158672
#     168432
#     181697
#     197482
#     214600
#     223625
#     242635
#     253132
#     270372
# 
# Disc length: 3782
# 
# Revision: 8
# Processed by: cddbd v1.5.2PL0 Copyright (c) Steve Scherf et al.
# Submitted via: fre:ac v1.1beta1pre5
# 
DISCID=1e0ec415
DTITLE=John Williams - The Guitarist
DYEAR=1998
DGENRE=Classical
TTITLE0=Mikis Theodorakis - Three Epitafios
TTITLE1=Mikis Theodorakis - Three Epitafios
TTITLE2=Mikis Theodorakis - Three Epitafios
TTITLE3=Carlo Domeniconi - Koyunbaba
TTITLE4=Carlo Domeniconi - Koyunbaba
TTITLE5=Carlo Domeniconi - Koyunbaba
TTITLE6=Carlo Domeniconi - Koyunbaba
TTITLE7=Erik Satie - Gymnopédie n3
TTITLE8=Anonymous - Lamento di Tristan
TTITLE9=Anonymous - Ductia
TTITLE10=Anonymous- Saltarello
TTITLE11=John Williams - Aeolian Suite for Guitar and Small Orchestra
TTITLE12=John Williams - Aeolian Suite for Guitar and Small Orchestra
TTITLE13=John Williams - Aeolian Suite for Guitar and Small Orchestra
TTITLE14=John Williams - Aeolian Suite for Guitar and Small Orchestra
TTITLE15=Philip Houghton - Stélé
TTITLE16=Philip Houghton - Stélé
TTITLE17=Philip Houghton - Stélé
TTITLE18=Philip Houghton - Stélé
TTITLE19=Eric Satie - Gnossiennes n1&2
TTITLE20=Eric Satie - Gnossiennes n1&2
EXTD=YEAR: 1998
EXTT0=
EXTT1=
EXTT2=
EXTT3=
EXTT4=
EXTT5=
EXTT6=
EXTT7=
EXTT8=
EXTT9=
EXTT10=
EXTT11=
EXTT12=
EXTT13=
EXTT14=
EXTT15=
EXTT16=
EXTT17=
EXTT18=
EXTT19=
EXTT20=
PLAYORDER=
